HIERARCHY
ROOT Hips
{
     OFFSET 1.88212 96.90440 -13.34250
     CHANNELS 6 Xposition Yposition Zposition Zrotation Xrotation Yrotation
     JOINT Spine
     {
          OFFSET 0.00000 11.89050 0.00000
          CHANNELS 3 Zrotation Xrotation Yrotation
          JOINT Spine1
          {
               OFFSET -0.00000 25.65740 0.12766
               CHANNELS 3 Zrotation Xrotation Yrotation
               JOINT HEad
               {
                    OFFSET 0.00000 8.73416 0.01134
                    CHANNELS 3 Zrotation Xrotation Yrotation
                    End Site
                    {
                         OFFSET -0.29000 12.77420 2.51395
                    }
               }
               JOINT LeftShoulder1
               {
                    OFFSET 8.99000 -0.36225 -0.22000
                    CHANNELS 3 Zrotation Xrotation Yrotation
                    JOINT LeftArm
                    {
                         OFFSET 10.28270 -0.00338 0.32212
                         CHANNELS 3 Zrotation Xrotation Yrotation
                         JOINT LeftForeArm
                         {
                              OFFSET 32.76690 0.09914 -1.42434
                              CHANNELS 3 Zrotation Xrotation Yrotation
                              JOINT LeftHand
                              {
                                   OFFSET 27.56430 0.08536 1.02216
                                   CHANNELS 3 Zrotation Xrotation Yrotation
                                   End Site
                                   {
                                        OFFSET 16.74430 -0.60000 1.50291
                                   }
                              }
                         }
                    }
               }
               JOINT RightShoulder
               {
                    OFFSET -8.99000 -0.36225 -0.22000
                    CHANNELS 3 Zrotation Xrotation Yrotation
                    JOINT RightArm
                    {
                         OFFSET -10.28270 -0.00338 0.32212
                         CHANNELS 3 Zrotation Xrotation Yrotation
                         JOINT RightForeArm
                         {
                              OFFSET -32.89710 0.09914 -1.42434
                              CHANNELS 3 Zrotation Xrotation Yrotation
                              JOINT RightHand
                              {
                                   OFFSET -27.49210 0.08536 1.02216
                                   CHANNELS 3 Zrotation Xrotation Yrotation
                                   End Site
                                   {
                                        OFFSET -16.63120 -0.60000 1.50291
                                   }
                              }
                         }
                    }
               }
          }
     }
     JOINT LeftUpLeg
     {
          OFFSET 8.94580 -8.66707 0.10165
          CHANNELS 3 Zrotation Xrotation Yrotation
          JOINT LeftLeg
          {
               OFFSET 0.00000 -44.42270 1.37270
               CHANNELS 3 Zrotation Xrotation Yrotation
               JOINT LeftFoot
               {
                    OFFSET -0.25355 -42.09240 -1.46059
                    CHANNELS 3 Zrotation Xrotation Yrotation
                    JOINT LeftToes
                    {
                         OFFSET -0.04000 -4.41509 8.49910
                         CHANNELS 3 Zrotation Xrotation Yrotation
                         End Site
                         {
                              OFFSET 0.08000 -0.04745 9.77979
                         }
                    }
               }
          }
     }
     JOINT RightUpLeg
     {
          OFFSET -8.94580 -8.66707 0.10165
          CHANNELS 3 Zrotation Xrotation Yrotation
          JOINT RightLeg
          {
               OFFSET 0.00000 -44.42270 1.37270
               CHANNELS 3 Zrotation Xrotation Yrotation
               JOINT RightFoot
               {
                    OFFSET 0.25355 -42.09240 -1.46059
                    CHANNELS 3 Zrotation Xrotation Yrotation
                    JOINT RightToes
                    {
                         OFFSET 0.04000 -4.41509 8.49910
                         CHANNELS 3 Zrotation Xrotation Yrotation
                         End Site
                         {
                              OFFSET -0.08000 -0.13745 9.77979
                         }
                    }
               }
          }
     }
}
MOTION
Frames: 17
Frame Time: 0.01667
-146.01274 90.47847 -246.22131 -13.82344 -2.49928 -80.09644 -7.09766 24.08060 -3.55948 0.00273 0.00639 -0.00118 2.02613 2.14974 10.26848 -0.24832 7.82165 -1.05943 -89.25546 -46.03842 -77.38145 -17.97880 34.71021 -85.40913 17.67342 7.71075 -12.26328 19.55476 7.66740 -4.03507 81.61314 -0.68748 70.30041 8.84896 30.81799 109.88616 17.62716 11.06126 3.62597 22.77310 -10.29150 -13.58578 -30.54722 19.12145 70.54594 -9.91849 0.09541 -0.12153 9.44109 -21.51487 -59.77157 -19.24663 2.21975 15.06859 40.40259 19.62585 -52.32970 -29.85549 -0.00134 -0.00051 3.35300 -65.20093 22.72530 
-146.67210 90.27126 -245.78734 -13.95123 -2.35681 -80.46423 -6.84589 24.12413 -3.78585 0.00329 0.00641 -0.00065 1.63194 2.33066 10.73238 -0.03809 7.75213 -0.69675 -88.99885 -46.52988 -77.13414 -18.47119 34.68972 -85.25719 17.62692 7.80680 -12.42803 19.72622 7.69864 -3.69141 81.52469 -0.73342 70.26504 8.84310 30.87557 109.80443 17.46024 11.03945 3.75770 23.12008 -10.80529 -14.24171 -30.90692 18.66449 71.14806 8.87863 0.07250 -0.10303 -9.50027 -21.27868 -59.40593 -19.38244 2.53487 14.57266 40.36926 20.39324 -51.81413 -29.78884 -0.00147 -0.00052 2.93328 -65.84507 22.14119 
-147.42474 89.96990 -245.25226 -14.10951 -2.16082 -80.85333 -6.18151 23.74382 -4.10376 0.00281 0.01017 0.00065 0.98914 2.90455 11.13747 0.10845 8.00815 -0.32490 -88.89329 -47.03960 -76.88461 -18.99053 34.72387 -85.11530 17.48664 8.04559 -12.71684 19.83475 8.04253 -3.38755 81.33431 -0.83621 70.17150 8.81097 30.92727 109.69735 17.10916 11.04285 4.05206 23.72623 -11.97352 -15.97283 -29.40526 16.55749 69.47527 -14.56235 -0.70953 0.62150 15.17972 -17.21700 -56.85632 -19.54822 2.85340 14.10979 40.42740 21.31347 -51.35794 -29.68778 -0.00169 -0.00047 2.58904 -66.59660 21.55464 
-148.26527 89.57320 -244.60986 -14.28511 -1.89176 -81.25204 -5.08737 23.01460 -4.50349 0.00144 0.01359 0.00165 0.12246 3.77499 11.49251 0.13970 8.48859 0.01315 -88.88403 -47.62163 -76.66473 -19.55618 34.84099 -84.95679 17.42077 8.19211 -12.94529 19.81717 8.59174 -3.12912 81.13368 -0.94207 70.03650 8.74127 30.97324 109.55727 16.88964 11.08764 4.30680 24.39500 -13.72962 -18.65817 -28.54635 14.95008 69.86346 -10.69132 0.08478 -0.00921 12.19737 -14.31631 -53.53269 -19.74613 3.14715 13.66978 40.60663 22.41415 -50.97304 -29.55587 -0.00195 -0.00035 2.32689 -67.47018 20.96843 
-149.18880 89.08149 -243.85107 -14.46208 -1.53511 -81.65562 -3.58289 21.99586 -4.96205 -0.00076 0.01664 0.00227 -0.92879 4.85507 11.81095 0.01365 9.12634 0.28211 -88.93983 -48.31372 -76.51278 -20.18028 35.05901 -84.75530 17.35620 8.33598 -13.19574 19.62076 9.27549 -2.92572 80.99118 -1.01053 69.89671 8.62975 31.01202 109.37544 16.67904 11.15764 4.59120 24.86088 -16.03785 -22.21052 -27.08776 14.42494 69.78120 -12.62116 -0.05430 0.07267 13.72430 -9.91566 -49.78806 -19.98141 3.39147 13.24958 40.92570 23.69868 -50.65897 -29.40742 -0.00218 -0.00027 2.12774 -68.46632 20.35505 
-150.20935 88.51221 -242.96605 -14.63163 -1.08990 -82.07388 -1.72498 20.74217 -5.43911 -0.00370 0.01947 0.00252 -2.11772 6.07443 12.10878 -0.30364 9.88196 0.45892 -89.02888 -49.13472 -76.45306 -20.86243 35.37598 -84.48922 17.37169 8.35814 -13.37497 19.20896 10.05324 -2.78829 80.94909 -1.01077 69.79189 8.47618 31.04331 109.14419 16.63682 11.25130 4.78720 25.18028 -18.06477 -25.56308 -26.42102 14.48441 70.58925 -12.76977 0.00475 0.02801 12.81289 -6.75537 -46.79058 -20.26379 3.59119 12.86367 41.37748 25.14825 -50.39294 -29.25292 -0.00229 -0.00025 1.95747 -69.57515 19.67286 
-151.34457 87.89281 -241.94849 -14.78914 -0.56654 -82.51778 0.40893 19.30368 -5.89636 -0.00709 0.02215 0.00245 -3.39561 7.37959 12.40238 -0.82875 10.73593 0.54126 -89.12024 -50.07745 -76.49099 -21.58874 35.77783 -84.15362 17.40072 8.33733 -13.54856 18.56978 10.90738 -2.72811 81.02110 -0.92203 69.75594 8.28693 31.06452 108.86351 16.64942 11.34996 4.94516 25.40577 -19.86970 -28.69578 -26.08570 14.94709 71.86559 -14.39116 -0.03527 0.03265 12.88098 -4.10682 -44.40837 -20.60290 3.76810 12.53031 41.92985 26.72974 -50.14038 -29.09610 -0.00216 -0.00017 1.79478 -70.76775 18.90275 
-152.58530 87.25088 -240.81345 -14.93180 0.02129 -82.98811 2.48738 18.10831 -6.22312 -0.00733 0.02085 0.00187 -4.42834 8.37777 12.66595 -1.25826 11.32699 0.54603 -89.19927 -51.09644 -76.61574 -22.34078 36.24228 -83.76529 17.47702 8.24178 -13.66857 17.99224 11.49419 -2.67084 81.17812 -0.73349 69.79574 8.07551 31.07673 108.56554 16.77229 11.44994 5.01211 25.50764 -21.41185 -31.61976 -24.07808 15.23808 71.90184 -21.47394 -0.30478 0.06689 17.96922 -0.05211 -41.47355 -20.99895 3.93724 12.25893 42.54256 28.40128 -49.87447 -28.94469 -0.00180 -0.00007 1.67255 -71.98548 18.08002 
-153.90887 86.60326 -239.57898 -15.05816 0.65504 -83.48353 4.49931 17.13337 -6.44336 -0.00740 0.01927 0.00114 -5.22530 9.09547 12.89611 -1.61770 11.70218 0.49191 -89.24511 -52.15800 -76.80159 -23.08766 36.74892 -83.36011 17.55947 8.14911 -13.77719 17.46207 11.85988 -2.63869 81.39472 -0.46399 69.90606 7.85599 31.08275 108.28178 16.91094 11.53720 5.03792 25.51351 -22.71488 -34.32142 -22.90037 16.10714 72.68983 -20.03561 0.01748 0.00951 14.15111 2.18903 -39.01006 -21.44666 4.10638 12.05683 43.17072 30.10906 -49.57294 -28.81271 -0.00129 -0.00004 1.67926 -73.14359 17.28886 
-155.29047 85.96527 -238.26176 -15.16797 1.31433 -84.00286 6.42698 16.35913 -6.57648 -0.00749 0.01771 0.00042 -5.80222 9.56347 13.09410 -1.92410 11.90413 0.39876 -89.24084 -53.23239 -77.01970 -23.79425 37.27784 -82.97450 17.67315 8.04080 -13.83780 16.97237 12.04735 -2.64312 81.65373 -0.13512 70.07964 7.64085 31.08922 108.03276 17.09312 11.60652 4.99771 25.44434 -23.82948 -36.78537 -22.17102 17.31160 73.94057 -23.05805 -0.05473 0.03473 14.68280 4.01902 -37.28377 -21.93806 4.28222 11.93066 43.76457 31.79105 -49.20911 -28.71432 -0.00068 -0.00016 1.90109 -74.15171 16.61715 
-156.70465 85.35236 -236.87724 -15.26025 1.97954 -84.54445 8.24869 15.76739 -6.63845 -0.00770 0.01623 -0.00028 -6.17609 9.81225 13.26409 -2.19649 11.97222 0.28539 -89.17114 -54.29616 -77.24653 -24.43271 37.80978 -82.63446 17.79202 7.93150 -13.86591 16.51644 12.09714 -2.68630 81.94861 0.23166 70.31078 7.44241 31.10343 107.82743 17.26708 11.64272 4.92227 25.31905 -24.78625 -38.99515 -21.76273 18.74499 75.47993 -23.90727 -0.02195 0.01395 13.14798 5.27034 -35.92166 -22.46404 4.47236 11.88508 44.26941 33.38321 -48.74797 -28.65829 -0.00003 -0.00035 2.38445 -74.92635 16.12707 
-158.12701 84.78223 -235.44064 -15.33248 2.63346 -85.10591 9.93982 15.34117 -6.64207 -0.00813 0.01487 -0.00095 -6.36354 9.87105 13.41176 -2.45753 11.94355 0.16683 -89.02159 -55.32991 -77.46400 -24.99017 38.32227 -82.34987 17.92504 7.77686 -13.83336 16.08399 12.04894 -2.75683 82.28111 0.61127 70.59414 7.27065 31.13220 107.66388 17.45645 11.63982 4.79275 25.15369 -25.60991 -40.93303 -21.62335 20.28001 77.18083 -25.52941 -0.02160 0.01200 12.74389 6.19546 -34.97825 -23.01426 4.68441 11.92238 44.62807 34.82423 -48.14875 -28.64666 0.00065 -0.00052 3.16517 -75.38550 15.87912 
-159.53526 84.27478 -233.96579 -15.38107 3.26101 -85.68388 11.47325 15.06538 -6.59725 -0.00879 0.01353 -0.00156 -6.38105 9.76802 13.54305 -2.72566 11.85225 0.05604 -88.78022 -56.31027 -77.65554 -25.46915 38.78740 -82.11804 18.05467 7.57138 -13.75070 15.66467 11.94051 -2.83233 82.65412 0.97510 70.92302 7.13140 31.17904 107.53432 17.63427 11.59457 4.62441 24.97248 -26.31155 -42.57417 -21.78306 21.82082 78.94680 -26.18109 -0.00915 0.00674 11.92751 6.77164 -34.41693 -23.57807 4.92435 12.04252 44.78671 36.05872 -47.37149 -28.67546 0.00132 -0.00053 4.28146 -75.44466 15.94307 
-160.90826 83.85201 -232.46585 -15.40283 3.84722 -86.27335 12.81785 14.92815 -6.51233 -0.00976 0.01254 -0.00214 -6.24444 9.52943 13.66414 -3.02327 11.72860 -0.04253 -88.42873 -57.21331 -77.80028 -25.87124 39.17759 -81.93274 18.19517 7.29871 -13.61032 15.23884 11.80542 -2.90077 83.07995 1.31419 71.29417 7.02525 31.24416 107.42754 17.81972 11.51202 4.40238 24.80586 -26.89396 -43.88601 -22.27911 23.24137 80.69193 -26.53996 -0.00115 0.00483 11.47832 6.96377 -34.32817 -24.14646 5.19599 12.24315 44.70090 37.03973 -46.38498 -28.73540 0.00198 -0.00033 5.71652 -75.01606 16.33986 
-162.21890 83.53769 -230.95744 -15.39443 4.38177 -86.85811 13.94715 14.91733 -6.40315 -0.01095 0.01180 -0.00263 -5.97005 9.17970 13.78078 -3.36140 11.59539 -0.12070 -87.95897 -58.00704 -77.87508 -26.19437 39.47198 -81.78767 18.34618 6.98494 -13.43755 14.79409 11.66847 -2.95532 83.56274 1.62637 71.70126 6.94796 31.32599 107.33311 18.00088 11.39830 4.13965 24.59425 -27.22455 -44.88462 -23.46614 24.44974 82.47469 -26.61293 -0.00199 -0.00256 11.36236 6.29640 -34.78172 -24.70841 5.44294 12.50931 44.47160 37.66793 -45.10919 -29.63995 -0.00452 0.00250 7.49578 -73.90388 16.41624 
-163.44890 83.34834 -229.46097 -15.35356 4.85342 -87.42565 14.83248 15.02212 -6.27809 -0.01214 0.01121 -0.00295 -5.57541 8.74235 13.89798 -3.73304 11.46027 -0.16992 -87.37589 -58.65949 -77.85188 -26.42764 39.66217 -81.68253 18.51476 6.65954 -13.25816 14.33683 11.53825 -2.99372 84.09042 1.91261 72.12955 6.89181 31.42300 107.24184 18.18403 11.26884 3.85085 24.61088 -27.06544 -44.34697 -24.51941 25.38443 82.99186 -26.30776 -0.00302 0.00111 11.43227 5.07650 -35.81457 -25.24688 5.68765 12.82778 44.00981 38.03704 -43.70403 -30.54087 0.00328 0.00056 9.35929 -72.18598 16.67948 
-164.60519 83.30311 -227.98178 -15.28963 5.25251 -87.96469 15.45435 15.23709 -6.14409 -0.01291 0.01064 -0.00306 -5.08200 8.24307 14.01945 -4.10392 11.31454 -0.18025 -86.70112 -59.13984 -77.69800 -26.55409 39.75146 -81.62669 18.68272 6.37214 -13.11718 13.90815 11.40693 -3.00977 84.62141 2.16339 72.55277 6.84781 31.53150 107.15142 18.34063 11.14338 3.58503 24.88553 -26.43184 -42.40614 -25.13218 25.88418 82.26561 -25.55782 -0.00532 0.00784 11.58099 3.69652 -37.32574 -25.76142 5.86432 13.18994 43.65806 38.37663 -42.36331 -30.03117 0.00435 0.00635 10.03553 -53.76797 19.62548 
